<mxfile host="app.diagrams.net" modified="2024-01-10T18:18:27.663Z" agent="Mozilla/5.0 (Windows NT 10.0; Win64; x64) AppleWebKit/537.36 (KHTML, like Gecko) Chrome/120.0.0.0 Safari/537.36" etag="_Du5prLqmGFOxR4lD3GO" version="22.1.18" type="github">
  <diagram id="C5RBs43oDa-KdzZeNtuy" name="Page-1">
    <mxGraphModel dx="5754" dy="1144" grid="1" gridSize="10" guides="1" tooltips="1" connect="1" arrows="1" fold="1" page="1" pageScale="1" pageWidth="827" pageHeight="1169" math="0" shadow="0">
      <root>
        <mxCell id="WIyWlLk6GJQsqaUBKTNV-0" />
        <mxCell id="WIyWlLk6GJQsqaUBKTNV-1" parent="WIyWlLk6GJQsqaUBKTNV-0" />
        <mxCell id="WIyWlLk6GJQsqaUBKTNV-2" value="" style="rounded=0;html=1;jettySize=auto;orthogonalLoop=1;fontSize=11;endArrow=block;endFill=0;endSize=8;strokeWidth=1;shadow=0;labelBackgroundColor=none;edgeStyle=orthogonalEdgeStyle;" parent="WIyWlLk6GJQsqaUBKTNV-1" source="WIyWlLk6GJQsqaUBKTNV-3" target="WIyWlLk6GJQsqaUBKTNV-6" edge="1">
          <mxGeometry relative="1" as="geometry" />
        </mxCell>
        <mxCell id="WIyWlLk6GJQsqaUBKTNV-3" value="User prompt" style="rounded=1;whiteSpace=wrap;html=1;fontSize=12;glass=0;strokeWidth=1;shadow=0;" parent="WIyWlLk6GJQsqaUBKTNV-1" vertex="1">
          <mxGeometry x="160" y="80" width="120" height="40" as="geometry" />
        </mxCell>
        <mxCell id="WIyWlLk6GJQsqaUBKTNV-4" value="Yes" style="rounded=0;html=1;jettySize=auto;orthogonalLoop=1;fontSize=11;endArrow=block;endFill=0;endSize=8;strokeWidth=1;shadow=0;labelBackgroundColor=none;edgeStyle=orthogonalEdgeStyle;" parent="WIyWlLk6GJQsqaUBKTNV-1" source="WIyWlLk6GJQsqaUBKTNV-6" target="W-J2rvUh-T9oDbTasOV5-1" edge="1">
          <mxGeometry y="20" relative="1" as="geometry">
            <mxPoint as="offset" />
            <mxPoint x="220" y="290" as="targetPoint" />
          </mxGeometry>
        </mxCell>
        <mxCell id="WIyWlLk6GJQsqaUBKTNV-5" value="No" style="edgeStyle=orthogonalEdgeStyle;rounded=0;html=1;jettySize=auto;orthogonalLoop=1;fontSize=11;endArrow=block;endFill=0;endSize=8;strokeWidth=1;shadow=0;labelBackgroundColor=none;" parent="WIyWlLk6GJQsqaUBKTNV-1" source="WIyWlLk6GJQsqaUBKTNV-6" target="WIyWlLk6GJQsqaUBKTNV-7" edge="1">
          <mxGeometry y="10" relative="1" as="geometry">
            <mxPoint as="offset" />
          </mxGeometry>
        </mxCell>
        <mxCell id="WIyWlLk6GJQsqaUBKTNV-6" value="Enough Information to search?" style="rhombus;whiteSpace=wrap;html=1;shadow=0;fontFamily=Helvetica;fontSize=12;align=center;strokeWidth=1;spacing=6;spacingTop=-4;" parent="WIyWlLk6GJQsqaUBKTNV-1" vertex="1">
          <mxGeometry x="170" y="170" width="100" height="80" as="geometry" />
        </mxCell>
        <mxCell id="W-J2rvUh-T9oDbTasOV5-3" style="edgeStyle=orthogonalEdgeStyle;rounded=0;orthogonalLoop=1;jettySize=auto;html=1;entryX=1;entryY=0.5;entryDx=0;entryDy=0;" parent="WIyWlLk6GJQsqaUBKTNV-1" source="WIyWlLk6GJQsqaUBKTNV-7" target="WIyWlLk6GJQsqaUBKTNV-3" edge="1">
          <mxGeometry relative="1" as="geometry">
            <Array as="points">
              <mxPoint x="380" y="100" />
            </Array>
          </mxGeometry>
        </mxCell>
        <mxCell id="WIyWlLk6GJQsqaUBKTNV-7" value="Bot responds with clarifying questions" style="rounded=1;whiteSpace=wrap;html=1;fontSize=12;glass=0;strokeWidth=1;shadow=0;" parent="WIyWlLk6GJQsqaUBKTNV-1" vertex="1">
          <mxGeometry x="320" y="190" width="120" height="40" as="geometry" />
        </mxCell>
        <mxCell id="W-J2rvUh-T9oDbTasOV5-6" style="edgeStyle=orthogonalEdgeStyle;rounded=0;orthogonalLoop=1;jettySize=auto;html=1;exitX=0.5;exitY=1;exitDx=0;exitDy=0;entryX=0.5;entryY=0;entryDx=0;entryDy=0;" parent="WIyWlLk6GJQsqaUBKTNV-1" source="W-J2rvUh-T9oDbTasOV5-0" target="W-J2rvUh-T9oDbTasOV5-4" edge="1">
          <mxGeometry relative="1" as="geometry" />
        </mxCell>
        <mxCell id="W-J2rvUh-T9oDbTasOV5-0" value="Fetch photos from Google street view API" style="rounded=1;whiteSpace=wrap;html=1;" parent="WIyWlLk6GJQsqaUBKTNV-1" vertex="1">
          <mxGeometry x="160" y="430" width="120" height="60" as="geometry" />
        </mxCell>
        <mxCell id="W-J2rvUh-T9oDbTasOV5-2" style="edgeStyle=orthogonalEdgeStyle;rounded=0;orthogonalLoop=1;jettySize=auto;html=1;entryX=0.5;entryY=0;entryDx=0;entryDy=0;" parent="WIyWlLk6GJQsqaUBKTNV-1" source="W-J2rvUh-T9oDbTasOV5-1" target="W-J2rvUh-T9oDbTasOV5-0" edge="1">
          <mxGeometry relative="1" as="geometry" />
        </mxCell>
        <mxCell id="W-J2rvUh-T9oDbTasOV5-1" value="Perform search(es) with API" style="rounded=1;whiteSpace=wrap;html=1;" parent="WIyWlLk6GJQsqaUBKTNV-1" vertex="1">
          <mxGeometry x="160" y="320" width="120" height="60" as="geometry" />
        </mxCell>
        <mxCell id="W-J2rvUh-T9oDbTasOV5-9" style="edgeStyle=orthogonalEdgeStyle;rounded=0;orthogonalLoop=1;jettySize=auto;html=1;exitX=0;exitY=0.5;exitDx=0;exitDy=0;entryX=0;entryY=0.5;entryDx=0;entryDy=0;" parent="WIyWlLk6GJQsqaUBKTNV-1" source="W-J2rvUh-T9oDbTasOV5-4" target="WIyWlLk6GJQsqaUBKTNV-3" edge="1">
          <mxGeometry relative="1" as="geometry" />
        </mxCell>
        <mxCell id="W-J2rvUh-T9oDbTasOV5-4" value="Present to user, allow for further searches" style="whiteSpace=wrap;html=1;rounded=1;" parent="WIyWlLk6GJQsqaUBKTNV-1" vertex="1">
          <mxGeometry x="160" y="554" width="120" height="60" as="geometry" />
        </mxCell>
        <mxCell id="W-J2rvUh-T9oDbTasOV5-8" value="&lt;b&gt;Functions&lt;br&gt;&lt;div style=&quot;text-align: left;&quot;&gt;&lt;ul&gt;&lt;li&gt;&lt;span style=&quot;background-color: initial; font-weight: normal;&quot;&gt;Search MLS DB&lt;/span&gt;&lt;/li&gt;&lt;li&gt;&lt;span style=&quot;background-color: initial;&quot;&gt;Search Google Street View DB&lt;/span&gt;&lt;/li&gt;&lt;/ul&gt;&lt;/div&gt;&lt;/b&gt;" style="shape=process;whiteSpace=wrap;html=1;backgroundOutline=1;" parent="WIyWlLk6GJQsqaUBKTNV-1" vertex="1">
          <mxGeometry x="500" y="80" width="260" height="120" as="geometry" />
        </mxCell>
        <mxCell id="W-J2rvUh-T9oDbTasOV5-12" value="&lt;br&gt;&lt;b&gt;&lt;span style=&quot;color: rgb(0, 0, 0); font-family: Helvetica; font-size: 12px; font-style: normal; font-variant-ligatures: normal; font-variant-caps: normal; letter-spacing: normal; orphans: 2; text-align: center; text-indent: 0px; text-transform: none; widows: 2; word-spacing: 0px; -webkit-text-stroke-width: 0px; background-color: rgb(251, 251, 251); text-decoration-thickness: initial; text-decoration-style: initial; text-decoration-color: initial; float: none; display: inline !important;&quot;&gt;Problems&lt;/span&gt;&lt;br style=&quot;border-color: var(--border-color); color: rgb(0, 0, 0); font-family: Helvetica; font-size: 12px; font-style: normal; font-variant-ligatures: normal; font-variant-caps: normal; letter-spacing: normal; orphans: 2; text-align: center; text-indent: 0px; text-transform: none; widows: 2; word-spacing: 0px; -webkit-text-stroke-width: 0px; background-color: rgb(251, 251, 251); text-decoration-thickness: initial; text-decoration-style: initial; text-decoration-color: initial;&quot;&gt;&lt;ul&gt;&lt;li style=&quot;text-align: left;&quot;&gt;&lt;span style=&quot;color: rgb(0, 0, 0); font-family: Helvetica; font-size: 12px; font-style: normal; font-variant-ligatures: normal; font-variant-caps: normal; font-weight: 400; letter-spacing: normal; orphans: 2; text-indent: 0px; text-transform: none; widows: 2; word-spacing: 0px; -webkit-text-stroke-width: 0px; background-color: rgb(251, 251, 251); text-decoration-thickness: initial; text-decoration-style: initial; text-decoration-color: initial; float: none; display: inline !important;&quot;&gt;How could it answer prompts asking &quot;Big front yard&quot; or &quot;Views of the ocean&quot;?&lt;/span&gt;&lt;/li&gt;&lt;li style=&quot;text-align: left;&quot;&gt;&lt;span style=&quot;color: rgb(0, 0, 0); font-family: Helvetica; font-size: 12px; font-style: normal; font-variant-ligatures: normal; font-variant-caps: normal; font-weight: 400; letter-spacing: normal; orphans: 2; text-indent: 0px; text-transform: none; widows: 2; word-spacing: 0px; -webkit-text-stroke-width: 0px; background-color: rgb(251, 251, 251); text-decoration-thickness: initial; text-decoration-style: initial; text-decoration-color: initial; float: none; display: inline !important;&quot;&gt;&lt;br&gt;&lt;/span&gt;&lt;/li&gt;&lt;/ul&gt;&lt;/b&gt;" style="shape=process;whiteSpace=wrap;html=1;backgroundOutline=1;" parent="WIyWlLk6GJQsqaUBKTNV-1" vertex="1">
          <mxGeometry x="500" y="240" width="260" height="180" as="geometry" />
        </mxCell>
        <mxCell id="pbbSyum6sILlS7EllfHM-1" style="edgeStyle=orthogonalEdgeStyle;rounded=0;orthogonalLoop=1;jettySize=auto;html=1;exitX=0.5;exitY=1;exitDx=0;exitDy=0;" edge="1" parent="WIyWlLk6GJQsqaUBKTNV-1" source="pbbSyum6sILlS7EllfHM-0" target="pbbSyum6sILlS7EllfHM-2">
          <mxGeometry relative="1" as="geometry">
            <mxPoint x="330" y="1090" as="targetPoint" />
          </mxGeometry>
        </mxCell>
        <mxCell id="pbbSyum6sILlS7EllfHM-3" style="edgeStyle=orthogonalEdgeStyle;rounded=0;orthogonalLoop=1;jettySize=auto;html=1;exitX=0.5;exitY=1;exitDx=0;exitDy=0;" edge="1" parent="WIyWlLk6GJQsqaUBKTNV-1" source="pbbSyum6sILlS7EllfHM-0" target="pbbSyum6sILlS7EllfHM-4">
          <mxGeometry relative="1" as="geometry">
            <mxPoint x="540" y="1080" as="targetPoint" />
          </mxGeometry>
        </mxCell>
        <mxCell id="pbbSyum6sILlS7EllfHM-5" style="edgeStyle=orthogonalEdgeStyle;rounded=0;orthogonalLoop=1;jettySize=auto;html=1;exitX=0.5;exitY=1;exitDx=0;exitDy=0;" edge="1" parent="WIyWlLk6GJQsqaUBKTNV-1" source="pbbSyum6sILlS7EllfHM-0" target="pbbSyum6sILlS7EllfHM-6">
          <mxGeometry relative="1" as="geometry">
            <mxPoint x="740" y="1070" as="targetPoint" />
          </mxGeometry>
        </mxCell>
        <mxCell id="pbbSyum6sILlS7EllfHM-7" style="edgeStyle=orthogonalEdgeStyle;rounded=0;orthogonalLoop=1;jettySize=auto;html=1;exitX=0.5;exitY=1;exitDx=0;exitDy=0;" edge="1" parent="WIyWlLk6GJQsqaUBKTNV-1" source="pbbSyum6sILlS7EllfHM-0" target="pbbSyum6sILlS7EllfHM-8">
          <mxGeometry relative="1" as="geometry">
            <mxPoint x="100" y="1070" as="targetPoint" />
          </mxGeometry>
        </mxCell>
        <mxCell id="pbbSyum6sILlS7EllfHM-0" value="Chat bot" style="rounded=1;whiteSpace=wrap;html=1;" vertex="1" parent="WIyWlLk6GJQsqaUBKTNV-1">
          <mxGeometry x="370" y="910" width="120" height="60" as="geometry" />
        </mxCell>
        <mxCell id="pbbSyum6sILlS7EllfHM-2" value="Assistant" style="rounded=1;whiteSpace=wrap;html=1;" vertex="1" parent="WIyWlLk6GJQsqaUBKTNV-1">
          <mxGeometry x="230" y="1070" width="120" height="60" as="geometry" />
        </mxCell>
        <mxCell id="pbbSyum6sILlS7EllfHM-4" value="API" style="rounded=1;whiteSpace=wrap;html=1;" vertex="1" parent="WIyWlLk6GJQsqaUBKTNV-1">
          <mxGeometry x="480" y="1070" width="120" height="60" as="geometry" />
        </mxCell>
        <mxCell id="pbbSyum6sILlS7EllfHM-6" value="Scraping?" style="rounded=1;whiteSpace=wrap;html=1;" vertex="1" parent="WIyWlLk6GJQsqaUBKTNV-1">
          <mxGeometry x="680" y="1070" width="120" height="60" as="geometry" />
        </mxCell>
        <mxCell id="pbbSyum6sILlS7EllfHM-8" value="Extract Certain Info:&lt;br&gt;Beds&lt;br&gt;Baths&lt;br&gt;Sq ft&lt;br&gt;Price&lt;br&gt;Status (active/pending)&lt;br&gt;Listed by&lt;br&gt;Type of home?&lt;br&gt;Photos&lt;br&gt;" style="rounded=1;whiteSpace=wrap;html=1;" vertex="1" parent="WIyWlLk6GJQsqaUBKTNV-1">
          <mxGeometry x="40" y="1070" width="120" height="280" as="geometry" />
        </mxCell>
        <mxCell id="pbbSyum6sILlS7EllfHM-9" value="1133157895/15_PONDEROSA_LN-Palm_Coast-FL?source=search&amp;amp;timeStamp=1704910311198&amp;amp;condition=%7B&quot;location&quot;%3A%7B&quot;mapPath&quot;%3A&quot;%5B%7B%5C&quot;lat%5C&quot;%3A29.23796588531913%2C%5C&quot;lng%5C&quot;%3A-81.03220904548719%7D%2C%7B%5C&quot;lat%5C&quot;%3A29.240096259305673%2C%5C&quot;lng%5C&quot;%3A-81.00901569076875%7D%2C%7B%5C&quot;lat%5C&quot;%3A29.475225841500137%2C%5C&quot;lng%5C&quot;%3A-81.10423054848859%7D%2C%7B%5C&quot;lat%5C&quot;%3A29.64935958153297%2C%5C&quot;lng%5C&quot;%3A-81.18479694076879%7D%2C%7B%5C&quot;lat%5C&quot;%3A29.799891007039054%2C%5C&quot;lng%5C&quot;%3A-81.25315634836515%7D%2C%7B%5C&quot;lat%5C&quot;%3A29.83907687441724%2C%5C&quot;lng%5C&quot;%3A-81.25437704683355%7D%2C%7B%5C&quot;lat%5C&quot;%3A29.824251560131444%2C%5C&quot;lng%5C&quot;%3A-81.27390826423725%7D%2C%7B%5C&quot;lat%5C&quot;%3A29.772345798727216%2C%5C&quot;lng%5C&quot;%3A-81.26170123764386%7D%2C%7B%5C&quot;lat%5C&quot;%3A29.694966852828642%2C%5C&quot;lng%5C&quot;%3A-81.24583211564531%7D%2C%7B%5C&quot;lat%5C&quot;%3A29.654663798253278%2C%5C&quot;lng%5C&quot;%3A-81.29832235933355%7D%2C%7B%5C&quot;lat%5C&quot;%3A29.47735119520752%2C%5C&quot;lng%5C&quot;%3A-81.27146686730048%7D%2C%7B%5C&quot;lat%5C&quot;%3A29.40825325506694%2C%5C&quot;lng%5C&quot;%3A-81.2201973220806%7D%2C%7B%5C&quot;lat%5C&quot;%3A29.383791933721756%2C%5C&quot;lng%5C&quot;%3A-81.17136921570703%7D%2C%7B%5C&quot;lat%5C&quot;%3A29.411443414108277%2C%5C&quot;lng%5C&quot;%3A-81.10545124695703%7D%2C%7B%5C&quot;lat%5C&quot;%3A29.36464420052664%2C%5C&quot;lng%5C&quot;%3A-81.10056845308348%7D%2C%7B%5C&quot;lat%5C&quot;%3A29.2688515469208%2C%5C&quot;lng%5C&quot;%3A-81.06028523598866%7D%5D&quot;%7D%7D&amp;amp;listingSort=RELEVANCE&amp;amp;timezone=GMT-0500&amp;amp;pageSize=6&amp;amp;siteId=50744&amp;amp;page=1&amp;amp;" style="text;html=1;align=center;verticalAlign=middle;resizable=0;points=[];autosize=1;strokeColor=none;fillColor=none;" vertex="1" parent="WIyWlLk6GJQsqaUBKTNV-1">
          <mxGeometry x="-4470" y="1458" width="9860" height="30" as="geometry" />
        </mxCell>
      </root>
    </mxGraphModel>
  </diagram>
</mxfile>
